<?xml version="1.0" standalone="no"?>
<!DOCTYPE svg PUBLIC "-//W3C//DTD SVG 20010904//EN"
 "http://www.w3.org/TR/2001/REC-SVG-20010904/DTD/svg10.dtd">
<svg version="1.0" xmlns="http://www.w3.org/2000/svg"
 width="4676.000000pt" height="4676.000000pt" viewBox="0 0 4676.000000 4676.000000"
 preserveAspectRatio="xMidYMid meet">

<g transform="translate(0.000000,4676.000000) scale(0.100000,-0.100000)"
fill="#ffffff" stroke="none">
<path d="M22168 35533 l-3 -2428 -2427 -3 -2428 -2 0 -1215 0 -1215 -1215 0
-1215 0 0 -1215 0 -1215 -1215 0 -1215 0 0 -6085 0 -6085 1215 0 1215 0 0
-1210 0 -1210 1215 0 1215 0 0 -1210 0 -1210 4118 -2 c3591 -3 3746 -3 1215
-5 l-2903 -3 0 -1215 0 -1215 3645 0 3645 0 0 1215 0 1215 1213 2 1212 3 3
1212 2 1213 1213 2 1212 3 3 1213 2 1212 -667 2 -668 2 425 7 c234 3 1081 7
1883 8 l1457 1 0 6070 0 6070 -1215 0 -1215 0 0 1215 0 1215 -1217 0 -1218 0
3 1215 2 1215 -2430 0 -2430 0 0 2430 0 2430 -1215 0 -1215 0 -2 -2427z
m-3041 -7290 c-334 -2 -880 -2 -1215 0 -334 1 -60 2 608 2 668 0 942 -1 607
-2z m4866 0 c-331 -2 -875 -2 -1210 0 -334 1 -63 2 602 2 666 0 939 -1 608 -2z
m4865 0 c-335 -2 -881 -2 -1215 0 -335 1 -61 2 607 2 668 0 942 -1 608 -2z"/>
</g>
</svg>
